<?xml version="1.0" encoding="UTF-8"?>
<!DOCTYPE svg PUBLIC "-//W3C//DTD SVG 1.1//EN" "http://www.w3.org/Graphics/SVG/1.1/DTD/svg11.dtd">
<svg xmlns="http://www.w3.org/2000/svg" version="1.1" width="1378px" height="337px" style="shape-rendering:geometricPrecision; text-rendering:geometricPrecision; image-rendering:optimizeQuality; fill-rule:evenodd; clip-rule:evenodd" xmlns:xlink="http://www.w3.org/1999/xlink">
<g><path style="opacity:1" fill="#5295dc" d="M 1377.5,219.5 C 1377.5,227.833 1377.5,236.167 1377.5,244.5C 1295.18,248.335 1216.18,233.835 1140.5,201C 1086.71,175.272 1033.04,149.272 979.5,123C 931.474,100.102 881.474,82.7687 829.5,71C 781.888,61.6268 733.888,58.9601 685.5,63C 669.183,64.5539 652.849,65.8872 636.5,67C 630.639,69.9215 624.306,71.2549 617.5,71C 616.892,71.8699 616.059,72.3699 615,72.5C 612.576,71.8174 610.242,71.4841 608,71.5C 606.677,74.0584 604.843,74.7251 602.5,73.5C 550.618,83.2968 498.618,95.7968 446.5,111C 396.301,126.049 346.301,141.716 296.5,158C 257.71,163.875 218.71,167.375 179.5,168.5C 170.331,168.604 161.331,167.937 152.5,166.5C 145.244,167.511 137.911,167.344 130.5,166C 126.54,162.91 122.374,162.744 118,165.5C 115.205,164.815 112.372,164.315 109.5,164C 108.663,162.989 108.33,161.822 108.5,160.5C 105.315,160.02 102.481,160.686 100,162.5C 92.059,160.723 84.2257,158.723 76.5,156.5C 76.5,155.5 76.5,154.5 76.5,153.5C 73.4212,153.26 70.4212,153.593 67.5,154.5C 61.9821,150.929 55.9821,148.762 49.5,148C 33.1793,141.574 16.5126,135.741 -0.5,130.5C -0.5,122.5 -0.5,114.5 -0.5,106.5C 36.2847,121.697 74.2847,132.864 113.5,140C 152.744,145.218 192.077,145.885 231.5,142C 253.238,139.908 274.905,137.241 296.5,134C 376.259,107.227 456.925,83.5605 538.5,63C 601.736,47.3947 665.903,38.8947 731,37.5C 794.266,37.8199 855.433,49.3199 914.5,72C 937.826,80.8865 960.826,90.5531 983.5,101C 1033.92,126.211 1084.59,150.878 1135.5,175C 1212.41,209.986 1293.08,224.819 1377.5,219.5 Z"/></g>
<g><path style="opacity:0.999" fill="#265d9a" d="M 1377.5,244.5 C 1377.5,246.167 1377.5,247.833 1377.5,249.5C 1314.16,252.778 1252.16,245.278 1191.5,227C 1175.91,221.949 1160.57,216.616 1145.5,211C 1093.95,186.56 1042.62,161.56 991.5,136C 940.107,110.894 887.44,91.5603 833.5,78C 768.45,64.4981 703.116,63.1648 637.5,74C 568.936,84.3945 501.936,100.228 436.5,121.5C 434.048,122.065 431.715,122.732 429.5,123.5C 399.483,132.063 369.816,141.396 340.5,151.5C 337.634,152.965 334.634,153.965 331.5,154.5C 328.72,155.078 326.053,155.745 323.5,156.5C 314.168,158.66 304.835,161.16 295.5,164C 245.449,172.171 195.116,175.171 144.5,173C 107.889,170.264 72.2224,162.931 37.5,151C 24.7557,146.488 12.089,141.988 -0.5,137.5C -0.5,135.167 -0.5,132.833 -0.5,130.5C 16.5126,135.741 33.1793,141.574 49.5,148C 55.9821,148.762 61.9821,150.929 67.5,154.5C 70.4212,153.593 73.4212,153.26 76.5,153.5C 76.5,154.5 76.5,155.5 76.5,156.5C 84.2257,158.723 92.059,160.723 100,162.5C 102.481,160.686 105.315,160.02 108.5,160.5C 108.33,161.822 108.663,162.989 109.5,164C 112.372,164.315 115.205,164.815 118,165.5C 122.374,162.744 126.54,162.91 130.5,166C 137.911,167.344 145.244,167.511 152.5,166.5C 161.331,167.937 170.331,168.604 179.5,168.5C 218.71,167.375 257.71,163.875 296.5,158C 346.301,141.716 396.301,126.049 446.5,111C 498.618,95.7968 550.618,83.2968 602.5,73.5C 604.843,74.7251 606.677,74.0584 608,71.5C 610.242,71.4841 612.576,71.8174 615,72.5C 616.059,72.3699 616.892,71.8699 617.5,71C 624.306,71.2549 630.639,69.9215 636.5,67C 652.849,65.8872 669.183,64.5539 685.5,63C 733.888,58.9601 781.888,61.6268 829.5,71C 881.474,82.7687 931.474,100.102 979.5,123C 1033.04,149.272 1086.71,175.272 1140.5,201C 1216.18,233.835 1295.18,248.335 1377.5,244.5 Z"/></g>
<g><path style="opacity:1" fill="#b7d3ef" d="M 1377.5,249.5 C 1377.5,256.5 1377.5,263.5 1377.5,270.5C 1290.76,275.519 1208.1,259.686 1129.5,223C 1078.67,198.252 1028.01,173.585 977.5,149C 928.944,126.151 878.778,108.984 827,97.5C 814.914,95.0711 802.414,93.0711 789.5,91.5C 787.9,91.5507 786.4,91.8841 785,92.5C 784.5,92 784,91.5 783.5,91C 740.768,87.2524 698.101,87.9191 655.5,93C 655,93.5 654.5,94 654,94.5C 651.263,93.3895 648.429,93.2228 645.5,94C 642.666,94.0454 640.166,94.8787 638,96.5C 636.769,95.8922 635.436,95.5589 634,95.5C 627.666,96.5001 621.333,97.5001 615,98.5C 613.674,98.7549 612.674,99.4216 612,100.5C 609.733,99.0652 607.733,99.3985 606,101.5C 603.67,99.9683 601.67,100.302 600,102.5C 590.976,102.116 582.309,103.783 574,107.5C 570.196,106.814 566.363,107.148 562.5,108.5C 561.353,108.818 560.519,109.484 560,110.5C 556.602,109.266 553.602,109.932 551,112.5C 547.602,111.266 544.602,111.932 542,114.5C 541.275,113.941 540.442,113.608 539.5,113.5C 529.032,115.657 518.865,118.657 509,122.5C 502.295,122.261 495.961,123.928 490,127.5C 487.557,126.715 485.057,126.881 482.5,128C 480.048,129.31 477.548,130.476 475,131.5C 472.213,130.315 469.88,130.982 468,133.5C 465.213,132.315 462.88,132.982 461,135.5C 460.439,134.978 459.772,134.645 459,134.5C 444.274,138.631 429.607,142.964 415,147.5C 414.055,147.905 413.388,148.572 413,149.5C 412.439,148.978 411.772,148.645 411,148.5C 406.896,149.414 403.23,151.081 400,153.5C 394.247,153.303 388.913,154.97 384,158.5C 383.439,157.978 382.772,157.645 382,157.5C 377.896,158.414 374.23,160.081 371,162.5C 364.243,162.638 357.91,164.638 352,168.5C 351.439,167.978 350.772,167.645 350,167.5C 341.981,169.726 334.315,172.726 327,176.5C 326.439,175.978 325.772,175.645 325,175.5C 316.981,177.726 309.315,180.726 302,184.5C 277.046,187.68 251.879,190.513 226.5,193C 168.557,199.278 112.057,194.112 57,177.5C 39.0363,172.513 21.5363,166.346 4.5,159C 2.86586,158.506 1.19919,158.34 -0.5,158.5C -0.5,151.5 -0.5,144.5 -0.5,137.5C 12.089,141.988 24.7557,146.488 37.5,151C 72.2224,162.931 107.889,170.264 144.5,173C 195.116,175.171 245.449,172.171 295.5,164C 304.835,161.16 314.168,158.66 323.5,156.5C 326.698,157.036 329.365,156.369 331.5,154.5C 334.5,154.5 337.5,154.5 340.5,154.5C 340.5,153.5 340.5,152.5 340.5,151.5C 369.816,141.396 399.483,132.063 429.5,123.5C 432.388,124.01 434.721,123.344 436.5,121.5C 501.936,100.228 568.936,84.3945 637.5,74C 703.116,63.1648 768.45,64.4981 833.5,78C 887.44,91.5603 940.107,110.894 991.5,136C 1042.62,161.56 1093.95,186.56 1145.5,211C 1160.57,216.616 1175.91,221.949 1191.5,227C 1252.16,245.278 1314.16,252.778 1377.5,249.5 Z"/></g>
<g><path style="opacity:1" fill="#b6d3f0" d="M 1377.5,270.5 C 1377.5,272.833 1377.5,275.167 1377.5,277.5C 1294.72,282.204 1215.39,268.038 1139.5,235C 1091.07,212.582 1043.07,189.248 995.5,165C 945.312,139.936 892.979,120.603 838.5,107C 792.375,96.657 745.708,92.9903 698.5,96C 647.179,99.3313 596.512,106.998 546.5,119C 462.44,139.686 379.44,164.02 297.5,192C 257.728,198.176 217.728,201.676 177.5,202.5C 138.772,202.656 100.772,197.49 63.5,187C 41.9576,180.319 20.6242,173.153 -0.5,165.5C -0.5,163.167 -0.5,160.833 -0.5,158.5C 1.19919,158.34 2.86586,158.506 4.5,159C 21.5363,166.346 39.0363,172.513 57,177.5C 112.057,194.112 168.557,199.278 226.5,193C 251.879,190.513 277.046,187.68 302,184.5C 309.315,180.726 316.981,177.726 325,175.5C 325.772,175.645 326.439,175.978 327,176.5C 334.315,172.726 341.981,169.726 350,167.5C 350.772,167.645 351.439,167.978 352,168.5C 357.91,164.638 364.243,162.638 371,162.5C 374.23,160.081 377.896,158.414 382,157.5C 382.772,157.645 383.439,157.978 384,158.5C 388.913,154.97 394.247,153.303 400,153.5C 403.23,151.081 406.896,149.414 411,148.5C 411.772,148.645 412.439,148.978 413,149.5C 413.388,148.572 414.055,147.905 415,147.5C 429.607,142.964 444.274,138.631 459,134.5C 459.772,134.645 460.439,134.978 461,135.5C 462.88,132.982 465.213,132.315 468,133.5C 469.88,130.982 472.213,130.315 475,131.5C 477.548,130.476 480.048,129.31 482.5,128C 485.057,126.881 487.557,126.715 490,127.5C 495.961,123.928 502.295,122.261 509,122.5C 518.865,118.657 529.032,115.657 539.5,113.5C 540.442,113.608 541.275,113.941 542,114.5C 544.602,111.932 547.602,111.266 551,112.5C 553.602,109.932 556.602,109.266 560,110.5C 560.519,109.484 561.353,108.818 562.5,108.5C 566.363,107.148 570.196,106.814 574,107.5C 582.309,103.783 590.976,102.116 600,102.5C 601.67,100.302 603.67,99.9683 606,101.5C 607.733,99.3985 609.733,99.0652 612,100.5C 612.674,99.4216 613.674,98.7549 615,98.5C 621.333,97.5001 627.666,96.5001 634,95.5C 635.436,95.5589 636.769,95.8922 638,96.5C 640.166,94.8787 642.666,94.0454 645.5,94C 648.429,93.2228 651.263,93.3895 654,94.5C 654.5,94 655,93.5 655.5,93C 698.101,87.9191 740.768,87.2524 783.5,91C 784,91.5 784.5,92 785,92.5C 786.4,91.8841 787.9,91.5507 789.5,91.5C 802.414,93.0711 814.914,95.0711 827,97.5C 878.778,108.984 928.944,126.151 977.5,149C 1028.01,173.585 1078.67,198.252 1129.5,223C 1208.1,259.686 1290.76,275.519 1377.5,270.5 Z"/></g>
<g><path style="opacity:1" fill="#fefefe" d="M 1377.5,277.5 C 1377.5,297.167 1377.5,316.833 1377.5,336.5C 918.167,336.5 458.833,336.5 -0.5,336.5C -0.5,279.5 -0.5,222.5 -0.5,165.5C 20.6242,173.153 41.9576,180.319 63.5,187C 100.772,197.49 138.772,202.656 177.5,202.5C 217.728,201.676 257.728,198.176 297.5,192C 379.44,164.02 462.44,139.686 546.5,119C 596.512,106.998 647.179,99.3313 698.5,96C 745.708,92.9903 792.375,96.657 838.5,107C 892.979,120.603 945.312,139.936 995.5,165C 1043.07,189.248 1091.07,212.582 1139.5,235C 1215.39,268.038 1294.72,282.204 1377.5,277.5 Z"/></g>
<g><path style="opacity:1" fill="#7ba2cc" d="M 436.5,121.5 C 434.721,123.344 432.388,124.01 429.5,123.5C 431.715,122.732 434.048,122.065 436.5,121.5 Z"/></g>
<g><path style="opacity:1" fill="#729cc7" d="M 340.5,151.5 C 340.5,152.5 340.5,153.5 340.5,154.5C 337.5,154.5 334.5,154.5 331.5,154.5C 334.634,153.965 337.634,152.965 340.5,151.5 Z"/></g>
<g><path style="opacity:1" fill="#719bc6" d="M 331.5,154.5 C 329.365,156.369 326.698,157.036 323.5,156.5C 326.053,155.745 328.72,155.078 331.5,154.5 Z"/></g>
</svg>
