<?xml version="1.0" encoding="UTF-8"?>
<!DOCTYPE svg PUBLIC "-//W3C//DTD SVG 1.1//EN" "http://www.w3.org/Graphics/SVG/1.1/DTD/svg11.dtd">
<svg xmlns="http://www.w3.org/2000/svg" version="1.1" width="1378px" height="129px" style="shape-rendering:geometricPrecision; text-rendering:geometricPrecision; image-rendering:optimizeQuality; fill-rule:evenodd; clip-rule:evenodd" xmlns:xlink="http://www.w3.org/1999/xlink">
<g><path style="opacity:1" fill="#fefefe" d="M -0.5,-0.5 C 458.833,-0.5 918.167,-0.5 1377.5,-0.5C 1377.5,41.1667 1377.5,82.8333 1377.5,124.5C 1362.73,121.141 1348.06,117.474 1333.5,113.5C 1332.08,112.549 1330.41,112.216 1328.5,112.5C 1248.7,97.6498 1168.36,86.9832 1087.5,80.5C 1083.37,79.5151 1079.03,79.1818 1074.5,79.5C 1044.66,77.7931 1015,75.7931 985.5,73.5C 979.69,72.5104 973.69,72.1771 967.5,72.5C 910.167,70.111 852.834,68.111 795.5,66.5C 770.961,65.8243 746.294,65.1576 721.5,64.5C 720.893,64.6236 720.56,64.9569 720.5,65.5C 719.348,66.625 718.348,66.625 717.5,65.5C 713.167,64.1667 708.833,64.1667 704.5,65.5C 695.833,65.5 687.167,65.5 678.5,65.5C 677.167,64.1667 675.833,64.1667 674.5,65.5C 673.167,65.5 671.833,65.5 670.5,65.5C 667.167,64.1667 663.833,64.1667 660.5,65.5C 599.451,66.3292 538.118,67.6625 476.5,69.5C 468.316,69.1743 460.316,69.5076 452.5,70.5C 358.064,74.7705 263.731,82.2705 169.5,93C 112.05,99.9402 55.3835,110.44 -0.5,124.5C -0.5,82.8333 -0.5,41.1667 -0.5,-0.5 Z"/></g>
<g><path style="opacity:1" fill="#c5dbf3" d="M 660.5,65.5 C 663.833,64.1667 667.167,64.1667 670.5,65.5C 667.195,65.5144 663.862,65.5144 660.5,65.5 Z"/></g>
<g><path style="opacity:1" fill="#b4d1ef" d="M 674.5,65.5 C 675.833,64.1667 677.167,64.1667 678.5,65.5C 677.036,66.4054 675.702,66.4054 674.5,65.5 Z"/></g>
<g><path style="opacity:1" fill="#c9ddf4" d="M 704.5,65.5 C 708.833,64.1667 713.167,64.1667 717.5,65.5C 713.072,65.6634 708.738,65.6634 704.5,65.5 Z"/></g>
<g><path style="opacity:0.999" fill="#5295dc" d="M 660.5,65.5 C 663.862,65.5144 667.195,65.5144 670.5,65.5C 671.833,65.5 673.167,65.5 674.5,65.5C 675.702,66.4054 677.036,66.4054 678.5,65.5C 687.167,65.5 695.833,65.5 704.5,65.5C 708.738,65.6634 713.072,65.6634 717.5,65.5C 718.348,66.625 719.348,66.625 720.5,65.5C 745.425,66.49 770.425,66.8233 795.5,66.5C 852.834,68.111 910.167,70.111 967.5,72.5C 972.9,73.1869 978.4,73.8536 984,74.5C 984.383,73.944 984.883,73.6107 985.5,73.5C 1015,75.7931 1044.66,77.7931 1074.5,79.5C 1078.23,80.1955 1082.06,80.8622 1086,81.5C 1086.38,80.944 1086.88,80.6107 1087.5,80.5C 1168.36,86.9832 1248.7,97.6498 1328.5,112.5C 1330.07,113.928 1331.74,114.261 1333.5,113.5C 1348.06,117.474 1362.73,121.141 1377.5,124.5C 1377.5,125.833 1377.5,127.167 1377.5,128.5C 1374.5,128.5 1371.5,128.5 1368.5,128.5C 1336.91,121.735 1304.91,116.569 1272.5,113C 1143.85,99.3158 1014.85,90.9825 885.5,88C 680.347,82.2173 475.347,85.5506 270.5,98C 195.521,102.664 120.854,110.331 46.5,121C 33.2345,122.874 20.2345,125.374 7.5,128.5C 4.83333,128.5 2.16667,128.5 -0.5,128.5C -0.5,127.167 -0.5,125.833 -0.5,124.5C 55.3835,110.44 112.05,99.9402 169.5,93C 263.731,82.2705 358.064,74.7705 452.5,70.5C 453.117,70.6107 453.617,70.944 454,71.5C 461.599,70.8482 469.099,70.1815 476.5,69.5C 538.118,67.6625 599.451,66.3292 660.5,65.5 Z"/></g>
<g><path style="opacity:1" fill="#b1cfef" d="M 720.5,65.5 C 720.56,64.9569 720.893,64.6236 721.5,64.5C 746.294,65.1576 770.961,65.8243 795.5,66.5C 770.425,66.8233 745.425,66.49 720.5,65.5 Z"/></g>
<g><path style="opacity:1" fill="#b1cfef" d="M 452.5,70.5 C 460.316,69.5076 468.316,69.1743 476.5,69.5C 469.099,70.1815 461.599,70.8482 454,71.5C 453.617,70.944 453.117,70.6107 452.5,70.5 Z"/></g>
<g><path style="opacity:1" fill="#b0ceee" d="M 967.5,72.5 C 973.69,72.1771 979.69,72.5104 985.5,73.5C 984.883,73.6107 984.383,73.944 984,74.5C 978.4,73.8536 972.9,73.1869 967.5,72.5 Z"/></g>
<g><path style="opacity:1" fill="#b1cfef" d="M 1074.5,79.5 C 1079.03,79.1818 1083.37,79.5151 1087.5,80.5C 1086.88,80.6107 1086.38,80.944 1086,81.5C 1082.06,80.8622 1078.23,80.1955 1074.5,79.5 Z"/></g>
<g><path style="opacity:1" fill="#b2cfef" d="M 1328.5,112.5 C 1330.41,112.216 1332.08,112.549 1333.5,113.5C 1331.74,114.261 1330.07,113.928 1328.5,112.5 Z"/></g>
</svg>
