<?xml version="1.0" encoding="utf-8"?>
<!DOCTYPE svg PUBLIC "-//W3C//DTD SVG 1.0//EN" "http://www.w3.org/TR/2001/REC-SVG-20010904/DTD/svg10.dtd">
<svg version="1.0" xmlns="http://www.w3.org/2000/svg" width="1378px" height="129px" viewBox="0 0 1378 129" preserveAspectRatio="xMidYMid meet">
 <g fill="#ffffff">
  <path d="M0 64.5 l0 -64.5 689 0 689 0 -0.2 64.2 -0.3 64.3 -688.7 0.3 -688.8 0.2 0 -64.5z m1306 47.9 c-13.7 -3.4 -76.5 -12.8 -119 -17.8 -102.4 -12 -226.9 -20 -367.5 -23.7 -56.1 -1.4 -202.8 -1.4 -260 0 -60.1 1.5 -160.5 5.8 -192 8.1 -7.1 0.6 -25.8 1.9 -41.5 3 -62.4 4.4 -129.7 11.3 -180.5 18.4 -27 3.8 -72.6 11.3 -73.3 12.1 -0.9 0.8 1.6 0.6 22.3 -2 106.2 -13.1 226.5 -20.9 413 -26.7 54.8 -1.7 309.4 -1.7 362.5 0 135.9 4.3 220 8.6 293 14.7 9.6 0.8 20.9 1.7 25 2 8.9 0.7 19.5 1.7 46 4.5 35 3.7 47.3 5.1 60 7 14.9 2.1 19.5 2.3 12 0.4z"/>
 </g>
 <g fill="#5295dd">
  <path d="M0.2 127.4 c0.4 -2 2.1 -2.6 23.3 -8 7.7 -1.9 15.6 -3.9 17.5 -4.4 5.6 -1.5 33.8 -6.8 56 -10.6 61.1 -10.3 143.2 -19.5 225.5 -25.4 15.4 -1 34.3 -2.4 42 -3 52.1 -3.8 177.1 -8.3 251.5 -9.1 313.9 -3.2 595.6 16.8 739 52.6 20.6 5.1 23 5.9 23 8 0 1.8 0 1.8 -7.5 0.1 -8.9 -2.1 -52.7 -9.3 -71 -11.6 -8.8 -1.1 -17.3 -2.3 -19 -2.5 -10.1 -1.5 -80.8 -8.9 -95.5 -10 -4.1 -0.3 -15.4 -1.2 -25 -2 -72.9 -6.1 -154.3 -10.2 -292.5 -14.7 -48.7 -1.6 -313 -1.6 -353.5 0 -15.1 0.6 -32.4 1.1 -38.5 1.2 -6 0 -25.2 0.7 -42.5 1.5 -17.3 0.8 -33.5 1.4 -35.9 1.4 -25.5 -0.1 -154.9 8.2 -220.1 14.1 -31.8 2.9 -34.4 3.2 -35.6 4.1 -0.6 0.5 -1.3 0.6 -1.6 0.3 -2.3 -2.2 -121.8 14.4 -138.1 19.2 -1.4 0.5 -1.8 0.1 -1.5 -1.2z"/>
 </g>
</svg>